<svg width="1500" height="1500" viewBox="0 0 1500 1500" fill="none" xmlns="http://www.w3.org/2000/svg">
<rect width="1500" height="1500" rx="750" fill="#7D7AFB"/>
<path d="M517.228 340.91L693.547 517.228L517.228 693.547L340.91 517.228L517.228 340.91Z" fill="#E4E1FC"/>
<path fill-rule="evenodd" clip-rule="evenodd" d="M954.547 340.91C1067.51 340.91 1159.09 432.488 1159.09 545.456V954.547C1159.09 1067.51 1067.51 1159.09 954.547 1159.09H545.456C432.488 1159.09 340.91 1067.51 340.91 954.547V750.001H750.001V545.456C750.001 432.488 841.579 340.91 954.547 340.91ZM1076.28 545.436C1076.28 612.679 1021.77 667.189 954.527 667.189C887.285 667.189 832.774 612.679 832.774 545.436C832.774 478.194 887.285 423.683 954.527 423.683C1021.77 423.683 1076.28 478.194 1076.28 545.436Z" fill="white"/>
</svg>
