<svg width="1500" height="1500" viewBox="0 0 1500 1500" fill="none" xmlns="http://www.w3.org/2000/svg">
<rect width="1500" height="1500" rx="750" fill="#7D7AFB"/>
<path d="M443.007 318.549L569.845 445.388L443.007 572.226L316.168 445.388L443.007 318.549Z" fill="#E4E1FC"/>
<path fill-rule="evenodd" clip-rule="evenodd" d="M965.193 318.463C1084.68 318.463 1181.54 415.325 1181.54 534.809V967.501C1181.54 1086.99 1084.68 1183.85 965.193 1183.85H532.5C413.016 1183.85 316.154 1086.99 316.154 967.501V751.155H748.847V534.809C748.847 415.325 845.708 318.463 965.193 318.463ZM1093.95 534.788C1093.95 605.91 1036.29 663.566 965.172 663.566C894.05 663.566 836.395 605.91 836.395 534.788C836.395 463.667 894.05 406.011 965.172 406.011C1036.29 406.011 1093.95 463.667 1093.95 534.788Z" fill="white"/>
</svg>
