<svg width="939" height="250" viewBox="0 0 939 250" fill="none" xmlns="http://www.w3.org/2000/svg">
<path d="M53.8309 1.32858C58.8571 1.32858 62.9317 5.40312 62.9317 10.4293V10.4293C62.9317 15.4555 58.8571 19.5301 53.8309 19.5301H24.8751V39.193H44.5159C49.3954 39.193 53.351 43.1486 53.351 48.0281V48.0281C53.351 52.9075 49.3954 56.8631 44.5159 56.8631H24.8751V84.5947C24.8751 90.1176 20.3979 94.5947 14.8751 94.5947H12.121C6.59814 94.5947 2.12099 90.1176 2.12099 84.5947V11.3286C2.12099 5.80573 6.59814 1.32858 12.121 1.32858H53.8309Z" fill="#7D7AFB"/>
<path d="M139.693 78.1204H104.83L101.544 87.8073C100.168 91.8649 96.3592 94.5947 92.0744 94.5947H89.6834C82.7484 94.5947 77.9189 87.7077 80.2817 81.1877L106.832 7.92151C108.266 3.96424 112.025 1.32858 116.234 1.32858H128.556C132.765 1.32858 136.524 3.96424 137.958 7.92152L164.508 81.1877C166.871 87.7077 162.042 94.5947 155.107 94.5947H152.45C148.165 94.5947 144.356 91.8649 142.98 87.8073L139.693 78.1204ZM133.839 60.5831L122.262 26.4387L110.818 60.5831H133.839Z" fill="#7D7AFB"/>
<path d="M199.061 1.32858C204.584 1.32858 209.061 5.80573 209.061 11.3286V84.5947C209.061 90.1176 204.584 94.5947 199.061 94.5947H196.307C190.784 94.5947 186.307 90.1176 186.307 84.5947V11.3286C186.307 5.80573 190.784 1.32858 196.307 1.32858H199.061Z" fill="#7D7AFB"/>
<path d="M266.002 95.5247C259.172 95.5247 253.051 94.4176 247.639 92.2033C242.228 89.989 237.881 86.7118 234.599 82.3718C233.324 80.639 232.289 78.765 231.495 76.7498C229.428 71.5059 234.2 66.6946 239.837 66.6946H244.813C249.896 66.6946 253.597 71.2418 257.353 74.666V74.666C259.393 76.4375 262.055 77.3232 265.337 77.3232C268.708 77.3232 271.369 76.5703 273.321 75.0646C275.272 73.4703 276.248 71.3003 276.248 68.5546C276.248 66.2517 275.45 64.3474 273.853 62.8417C272.345 61.336 270.438 60.096 268.131 59.1217C265.914 58.1474 262.72 57.0402 258.551 55.8002C252.518 53.9402 247.595 52.0802 243.78 50.2202C239.966 48.3602 236.684 45.6145 233.934 41.983C231.184 38.3516 229.809 33.613 229.809 27.7673C229.809 19.0872 232.958 12.3115 239.256 7.44003C245.555 2.48001 253.76 0 263.873 0C274.164 0 282.458 2.48001 288.756 7.44003C292.346 10.2161 294.984 13.6249 296.672 17.6665C298.877 22.9459 294.072 27.9001 288.351 27.9001H282.278C277.771 27.9001 274.403 23.7264 270.926 20.8587V20.8587C268.885 19.0872 266.268 18.2015 263.075 18.2015C260.325 18.2015 258.107 18.9544 256.422 20.4601C254.736 21.8772 253.893 23.9587 253.893 26.7044C253.893 29.7158 255.313 32.063 258.151 33.7459C260.99 35.4287 265.426 37.2444 271.458 39.193C277.49 41.2302 282.369 43.1788 286.095 45.0388C289.91 46.8988 293.192 49.6002 295.942 53.1431C298.692 56.686 300.067 61.2474 300.067 66.8274C300.067 72.1417 298.692 76.9689 295.942 81.3089C293.281 85.649 289.377 89.1033 284.232 91.6718C279.087 94.2404 273.01 95.5247 266.002 95.5247Z" fill="#7D7AFB"/>
<path d="M378.872 78.1204H344.009L340.723 87.8073C339.347 91.8649 335.538 94.5947 331.253 94.5947H328.862C321.927 94.5947 317.098 87.7077 319.461 81.1877L346.011 7.92151C347.445 3.96424 351.204 1.32858 355.413 1.32858H367.735C371.944 1.32858 375.703 3.96424 377.137 7.92152L403.687 81.1877C406.05 87.7077 401.221 94.5947 394.286 94.5947H391.629C387.344 94.5947 383.535 91.8649 382.159 87.8073L378.872 78.1204ZM373.018 60.5831L361.441 26.4387L349.997 60.5831H373.018Z" fill="#7D7AFB"/>
<path d="M448.24 77.0575H469.278C474.121 77.0575 478.046 80.9833 478.046 85.8261V85.8261C478.046 90.6689 474.121 94.5947 469.278 94.5947H435.486C429.963 94.5947 425.486 90.1176 425.486 84.5947V11.3286C425.486 5.80573 429.963 1.32858 435.486 1.32858H438.24C443.763 1.32858 448.24 5.80573 448.24 11.3286V77.0575Z" fill="#7D7AFB"/>
<path d="M60.2704 232.596H25.4074L22.1212 242.283C20.7447 246.34 16.936 249.07 12.6513 249.07H10.2603C3.32528 249.07 -1.50423 242.183 0.858554 235.663L27.4093 162.397C28.8434 158.44 32.6019 155.804 36.811 155.804H49.1329C53.342 155.804 57.1005 158.44 58.5345 162.397L85.0853 235.663C87.4481 242.183 82.6186 249.07 75.6836 249.07H73.0264C68.7417 249.07 64.933 246.34 63.5565 242.283L60.2704 232.596ZM54.4155 215.058L42.8389 180.914L31.3953 215.058H54.4155Z" fill="#7D7AFB"/>
<path d="M129.638 231.533H150.676C155.518 231.533 159.444 235.459 159.444 240.301V240.301C159.444 245.144 155.518 249.07 150.676 249.07H116.884C111.361 249.07 106.884 244.593 106.884 239.07V165.804C106.884 160.281 111.361 155.804 116.884 155.804H119.638C125.161 155.804 129.638 160.281 129.638 165.804V231.533Z" fill="#7D7AFB"/>
<path d="M272.737 155.804C278.26 155.804 282.737 160.281 282.737 165.804V239.07C282.737 244.593 278.26 249.07 272.737 249.07H269.983C264.46 249.07 259.983 244.593 259.983 239.07V193.137L241.52 242.569C240.06 246.478 236.325 249.07 232.152 249.07H227.659C223.491 249.07 219.759 246.484 218.296 242.581L199.705 193.004V239.07C199.705 244.593 195.228 249.07 189.705 249.07H186.951C181.428 249.07 176.951 244.593 176.951 239.07V165.804C176.951 160.281 181.428 155.804 186.951 155.804H197.097C201.167 155.804 204.831 158.271 206.362 162.042L230.044 220.373L253.471 162.075C254.994 158.286 258.667 155.804 262.75 155.804H272.737Z" fill="#7D7AFB"/>
<path d="M363.903 232.596H329.04L325.754 242.283C324.377 246.34 320.568 249.07 316.284 249.07H313.893C306.958 249.07 302.128 242.183 304.491 235.663L331.042 162.397C332.476 158.44 336.234 155.804 340.443 155.804H352.765C356.974 155.804 360.733 158.44 362.167 162.397L388.718 235.663C391.08 242.183 386.251 249.07 379.316 249.07H376.659C372.374 249.07 368.565 246.34 367.189 242.283L363.903 232.596ZM358.048 215.058L346.471 180.914L335.028 215.058H358.048Z" fill="#7D7AFB"/>
<path d="M481.419 155.804C486.942 155.804 491.419 160.281 491.419 165.804V239.07C491.419 244.593 486.942 249.07 481.419 249.07H478.665C473.142 249.07 468.665 244.593 468.665 239.07V210.674H433.27V239.07C433.27 244.593 428.793 249.07 423.27 249.07H420.516C414.993 249.07 410.516 244.593 410.516 239.07V165.804C410.516 160.281 414.993 155.804 420.516 155.804H423.27C428.793 155.804 433.27 160.281 433.27 165.804V192.34H468.665V165.804C468.665 160.281 473.142 155.804 478.665 155.804H481.419Z" fill="#7D7AFB"/>
<path d="M610.286 155.804C615.808 155.804 620.286 160.281 620.286 165.804V239.07C620.286 244.593 615.808 249.07 610.286 249.07H607.531C602.009 249.07 597.531 244.593 597.531 239.07V193.137L579.068 242.569C577.608 246.478 573.874 249.07 569.7 249.07H565.207C561.039 249.07 557.308 246.484 555.844 242.581L537.253 193.004V239.07C537.253 244.593 532.776 249.07 527.253 249.07H524.499C518.976 249.07 514.499 244.593 514.499 239.07V165.804C514.499 160.281 518.976 155.804 524.499 155.804H534.645C538.715 155.804 542.38 158.271 543.911 162.042L567.592 220.373L591.019 162.075C592.542 158.286 596.215 155.804 600.298 155.804H610.286Z" fill="#7D7AFB"/>
<path d="M687.479 250C678.697 250 670.624 247.963 663.261 243.889C655.987 239.814 650.177 234.146 645.83 226.883C641.572 219.531 639.443 211.294 639.443 202.171C639.443 193.048 641.572 184.855 645.83 177.593C650.177 170.33 655.987 164.661 663.261 160.587C670.624 156.512 678.697 154.475 687.479 154.475C696.261 154.475 704.29 156.512 711.564 160.587C718.927 164.661 724.693 170.33 728.862 177.593C733.12 184.855 735.249 193.048 735.249 202.171C735.249 211.294 733.12 219.531 728.862 226.883C724.604 234.146 718.838 239.814 711.564 243.889C704.29 247.963 696.261 250 687.479 250ZM687.479 229.274C694.931 229.274 700.874 226.794 705.31 221.834C709.834 216.874 712.096 210.32 712.096 202.171C712.096 193.934 709.834 187.38 705.31 182.508C700.874 177.548 694.931 175.068 687.479 175.068C679.939 175.068 673.906 177.504 669.382 182.375C664.947 187.247 662.729 193.845 662.729 202.171C662.729 210.408 664.947 217.007 669.382 221.967C673.906 226.838 679.939 229.274 687.479 229.274Z" fill="#7D7AFB"/>
<path d="M766.916 155.804C772.439 155.804 776.916 160.281 776.916 165.804V211.604C776.916 217.184 778.291 221.48 781.042 224.491C783.792 227.503 787.828 229.008 793.15 229.008C798.473 229.008 802.554 227.503 805.392 224.491C808.231 221.48 809.65 217.184 809.65 211.604V165.804C809.65 160.281 814.127 155.804 819.65 155.804H822.404C827.927 155.804 832.404 160.281 832.404 165.804V211.471C832.404 219.797 830.63 226.838 827.082 232.596C823.534 238.353 818.743 242.693 812.711 245.616C806.767 248.539 800.114 250 792.751 250C785.388 250 778.779 248.583 772.924 245.749C767.158 242.826 762.59 238.486 759.219 232.729C755.848 226.883 754.162 219.797 754.162 211.471V165.804C754.162 160.281 758.64 155.804 764.162 155.804H766.916Z" fill="#7D7AFB"/>
<path d="M890.032 155.804C899.879 155.804 908.484 157.752 915.847 161.65C923.21 165.547 928.887 171.038 932.879 178.124C936.96 185.121 939 193.225 939 202.437C939 211.56 936.96 219.664 932.879 226.75C928.887 233.836 923.165 239.327 915.714 243.224C908.351 247.121 899.79 249.07 890.032 249.07H865.036C859.513 249.07 855.036 244.593 855.036 239.07V165.804C855.036 160.281 859.513 155.804 865.036 155.804H890.032ZM888.568 229.407C897.173 229.407 903.871 227.06 908.661 222.366C913.452 217.671 915.847 211.028 915.847 202.437C915.847 193.845 913.452 187.158 908.661 182.375C903.871 177.593 897.173 175.201 888.568 175.201H877.79V229.407H888.568Z" fill="#7D7AFB"/>
</svg>
